<mxfile host="Electron" modified="2023-08-10T01:21:17.313Z" agent="Mozilla/5.0 (Macintosh; Intel Mac OS X 10_15_7) AppleWebKit/537.36 (KHTML, like Gecko) draw.io/21.6.5 Chrome/114.0.5735.243 Electron/25.3.1 Safari/537.36" etag="DDvApdqfPo3dloOjtnPL" version="21.6.5" type="device">
  <diagram name="第 1 页" id="utMLbV04eaqdbAG-431M">
    <mxGraphModel dx="1219" dy="769" grid="1" gridSize="10" guides="1" tooltips="1" connect="1" arrows="1" fold="1" page="1" pageScale="1" pageWidth="3300" pageHeight="4681" math="0" shadow="0">
      <root>
        <mxCell id="0" />
        <mxCell id="1" parent="0" />
        <mxCell id="UT1i1PPxYZeE8euDBB32-13" value="签约待确认" style="rounded=1;whiteSpace=wrap;html=1;fontSize=15;fontStyle=1;fillColor=#ffe6cc;strokeColor=#d79b00;" vertex="1" parent="1">
          <mxGeometry x="320" y="160" width="120" height="40" as="geometry" />
        </mxCell>
        <mxCell id="UT1i1PPxYZeE8euDBB32-14" value="已签约" style="rounded=1;whiteSpace=wrap;html=1;fontSize=15;fontStyle=1;fillColor=#d5e8d4;strokeColor=#82b366;" vertex="1" parent="1">
          <mxGeometry x="320" y="320" width="120" height="40" as="geometry" />
        </mxCell>
        <mxCell id="UT1i1PPxYZeE8euDBB32-15" value="已取消" style="rounded=1;whiteSpace=wrap;html=1;fontSize=15;fontStyle=1;fillColor=#f5f5f5;fontColor=#333333;strokeColor=#666666;" vertex="1" parent="1">
          <mxGeometry x="600" y="160" width="120" height="40" as="geometry" />
        </mxCell>
        <mxCell id="UT1i1PPxYZeE8euDBB32-16" value="退租待确认" style="rounded=1;whiteSpace=wrap;html=1;fontSize=15;fontStyle=1;fillColor=#f8cecc;strokeColor=#b85450;" vertex="1" parent="1">
          <mxGeometry x="50" y="320" width="120" height="40" as="geometry" />
        </mxCell>
        <mxCell id="UT1i1PPxYZeE8euDBB32-17" value="已退租" style="rounded=1;whiteSpace=wrap;html=1;fontSize=15;fontStyle=1;fillColor=#e1d5e7;strokeColor=#9673a6;" vertex="1" parent="1">
          <mxGeometry x="50" y="440" width="120" height="40" as="geometry" />
        </mxCell>
        <mxCell id="UT1i1PPxYZeE8euDBB32-18" value="续约待确认" style="rounded=1;whiteSpace=wrap;html=1;fontSize=15;fontStyle=1;fillColor=#fff2cc;strokeColor=#d6b656;" vertex="1" parent="1">
          <mxGeometry x="850" y="160" width="120" height="40" as="geometry" />
        </mxCell>
        <mxCell id="UT1i1PPxYZeE8euDBB32-19" value="已到期" style="rounded=1;whiteSpace=wrap;html=1;fontSize=15;fontStyle=1;fillColor=#dae8fc;strokeColor=#6c8ebf;" vertex="1" parent="1">
          <mxGeometry x="320" y="440" width="120" height="40" as="geometry" />
        </mxCell>
        <mxCell id="UT1i1PPxYZeE8euDBB32-21" style="edgeStyle=orthogonalEdgeStyle;rounded=0;orthogonalLoop=1;jettySize=auto;html=1;exitX=0.5;exitY=1;exitDx=0;exitDy=0;entryX=0.5;entryY=0;entryDx=0;entryDy=0;" edge="1" parent="1" source="UT1i1PPxYZeE8euDBB32-20" target="UT1i1PPxYZeE8euDBB32-13">
          <mxGeometry relative="1" as="geometry" />
        </mxCell>
        <mxCell id="UT1i1PPxYZeE8euDBB32-20" value="后台管理系统发起新签约" style="shape=hexagon;perimeter=hexagonPerimeter2;whiteSpace=wrap;html=1;fixedSize=1;fillColor=#008a00;fontColor=#ffffff;strokeColor=#005700;" vertex="1" parent="1">
          <mxGeometry x="300" y="40" width="160" height="40" as="geometry" />
        </mxCell>
        <mxCell id="UT1i1PPxYZeE8euDBB32-23" value="" style="endArrow=classic;html=1;rounded=0;entryX=0;entryY=0.5;entryDx=0;entryDy=0;exitX=1;exitY=0.5;exitDx=0;exitDy=0;" edge="1" parent="1" source="UT1i1PPxYZeE8euDBB32-13" target="UT1i1PPxYZeE8euDBB32-15">
          <mxGeometry relative="1" as="geometry">
            <mxPoint x="440" y="130" as="sourcePoint" />
            <mxPoint x="670" y="400" as="targetPoint" />
          </mxGeometry>
        </mxCell>
        <mxCell id="UT1i1PPxYZeE8euDBB32-24" value="取消签约" style="edgeLabel;resizable=0;html=1;align=center;verticalAlign=middle;" connectable="0" vertex="1" parent="UT1i1PPxYZeE8euDBB32-23">
          <mxGeometry relative="1" as="geometry" />
        </mxCell>
        <mxCell id="UT1i1PPxYZeE8euDBB32-26" value="" style="endArrow=classic;html=1;rounded=0;exitX=0.5;exitY=1;exitDx=0;exitDy=0;entryX=0.5;entryY=0;entryDx=0;entryDy=0;" edge="1" parent="1" source="UT1i1PPxYZeE8euDBB32-13" target="UT1i1PPxYZeE8euDBB32-14">
          <mxGeometry relative="1" as="geometry">
            <mxPoint x="390" y="210" as="sourcePoint" />
            <mxPoint x="390" y="290" as="targetPoint" />
            <Array as="points" />
          </mxGeometry>
        </mxCell>
        <mxCell id="UT1i1PPxYZeE8euDBB32-27" value="移动端确认签约" style="edgeLabel;resizable=0;html=1;align=center;verticalAlign=middle;" connectable="0" vertex="1" parent="UT1i1PPxYZeE8euDBB32-26">
          <mxGeometry relative="1" as="geometry" />
        </mxCell>
        <mxCell id="UT1i1PPxYZeE8euDBB32-28" value="" style="endArrow=classic;html=1;rounded=0;exitX=0;exitY=0.5;exitDx=0;exitDy=0;entryX=1;entryY=0.5;entryDx=0;entryDy=0;" edge="1" parent="1" source="UT1i1PPxYZeE8euDBB32-14" target="UT1i1PPxYZeE8euDBB32-16">
          <mxGeometry relative="1" as="geometry">
            <mxPoint x="510" y="410" as="sourcePoint" />
            <mxPoint x="690" y="510" as="targetPoint" />
            <Array as="points" />
          </mxGeometry>
        </mxCell>
        <mxCell id="UT1i1PPxYZeE8euDBB32-29" value="移动端提前退租" style="edgeLabel;resizable=0;html=1;align=center;verticalAlign=middle;" connectable="0" vertex="1" parent="UT1i1PPxYZeE8euDBB32-28">
          <mxGeometry relative="1" as="geometry" />
        </mxCell>
        <mxCell id="UT1i1PPxYZeE8euDBB32-30" value="" style="endArrow=classic;html=1;rounded=0;exitX=0.5;exitY=1;exitDx=0;exitDy=0;entryX=0.5;entryY=0;entryDx=0;entryDy=0;" edge="1" parent="1" source="UT1i1PPxYZeE8euDBB32-16" target="UT1i1PPxYZeE8euDBB32-17">
          <mxGeometry relative="1" as="geometry">
            <mxPoint x="340" y="160" as="sourcePoint" />
            <mxPoint x="340" y="240" as="targetPoint" />
          </mxGeometry>
        </mxCell>
        <mxCell id="UT1i1PPxYZeE8euDBB32-31" value="后台管理系统确认退租" style="edgeLabel;resizable=0;html=1;align=center;verticalAlign=middle;" connectable="0" vertex="1" parent="UT1i1PPxYZeE8euDBB32-30">
          <mxGeometry relative="1" as="geometry" />
        </mxCell>
        <mxCell id="UT1i1PPxYZeE8euDBB32-34" value="移动端发起续约" style="shape=hexagon;perimeter=hexagonPerimeter2;whiteSpace=wrap;html=1;fixedSize=1;fillColor=#1ba1e2;fontColor=#ffffff;strokeColor=#006EAF;" vertex="1" parent="1">
          <mxGeometry x="840" y="40" width="140" height="40" as="geometry" />
        </mxCell>
        <mxCell id="UT1i1PPxYZeE8euDBB32-35" style="edgeStyle=orthogonalEdgeStyle;rounded=0;orthogonalLoop=1;jettySize=auto;html=1;exitX=0.5;exitY=1;exitDx=0;exitDy=0;entryX=0.5;entryY=0;entryDx=0;entryDy=0;" edge="1" parent="1" source="UT1i1PPxYZeE8euDBB32-34" target="UT1i1PPxYZeE8euDBB32-18">
          <mxGeometry relative="1" as="geometry">
            <mxPoint x="400" y="90" as="sourcePoint" />
            <mxPoint x="400" y="170" as="targetPoint" />
          </mxGeometry>
        </mxCell>
        <mxCell id="UT1i1PPxYZeE8euDBB32-37" value="" style="endArrow=classic;html=1;rounded=0;exitX=0.5;exitY=1;exitDx=0;exitDy=0;entryX=1;entryY=0.5;entryDx=0;entryDy=0;" edge="1" parent="1" source="UT1i1PPxYZeE8euDBB32-18" target="UT1i1PPxYZeE8euDBB32-14">
          <mxGeometry relative="1" as="geometry">
            <mxPoint x="450" y="190" as="sourcePoint" />
            <mxPoint x="630" y="290" as="targetPoint" />
            <Array as="points">
              <mxPoint x="910" y="340" />
            </Array>
          </mxGeometry>
        </mxCell>
        <mxCell id="UT1i1PPxYZeE8euDBB32-38" value="后台管理系统确认续约" style="edgeLabel;resizable=0;html=1;align=center;verticalAlign=middle;" connectable="0" vertex="1" parent="UT1i1PPxYZeE8euDBB32-37">
          <mxGeometry relative="1" as="geometry" />
        </mxCell>
        <mxCell id="UT1i1PPxYZeE8euDBB32-41" value="" style="endArrow=classic;html=1;rounded=0;entryX=1;entryY=0.5;entryDx=0;entryDy=0;exitX=0;exitY=0.5;exitDx=0;exitDy=0;" edge="1" parent="1" source="UT1i1PPxYZeE8euDBB32-18" target="UT1i1PPxYZeE8euDBB32-15">
          <mxGeometry relative="1" as="geometry">
            <mxPoint x="480" y="270" as="sourcePoint" />
            <mxPoint x="650" y="270" as="targetPoint" />
          </mxGeometry>
        </mxCell>
        <mxCell id="UT1i1PPxYZeE8euDBB32-42" value="取消续约" style="edgeLabel;resizable=0;html=1;align=center;verticalAlign=middle;" connectable="0" vertex="1" parent="UT1i1PPxYZeE8euDBB32-41">
          <mxGeometry relative="1" as="geometry" />
        </mxCell>
        <mxCell id="UT1i1PPxYZeE8euDBB32-46" style="edgeStyle=orthogonalEdgeStyle;rounded=0;orthogonalLoop=1;jettySize=auto;html=1;entryX=0.5;entryY=0;entryDx=0;entryDy=0;" edge="1" parent="1" source="UT1i1PPxYZeE8euDBB32-44" target="UT1i1PPxYZeE8euDBB32-19">
          <mxGeometry relative="1" as="geometry">
            <mxPoint x="380" y="380" as="sourcePoint" />
            <mxPoint x="389" y="360" as="targetPoint" />
          </mxGeometry>
        </mxCell>
        <mxCell id="UT1i1PPxYZeE8euDBB32-47" value="" style="edgeStyle=orthogonalEdgeStyle;rounded=0;orthogonalLoop=1;jettySize=auto;html=1;entryX=0.5;entryY=0;entryDx=0;entryDy=0;" edge="1" parent="1" target="UT1i1PPxYZeE8euDBB32-44">
          <mxGeometry relative="1" as="geometry">
            <mxPoint x="380" y="380" as="sourcePoint" />
            <mxPoint x="380" y="440" as="targetPoint" />
          </mxGeometry>
        </mxCell>
        <mxCell id="UT1i1PPxYZeE8euDBB32-44" value="" style="html=1;verticalLabelPosition=bottom;align=center;labelBackgroundColor=#ffffff;verticalAlign=top;strokeWidth=2;strokeColor=#0080F0;shadow=0;dashed=0;shape=mxgraph.ios7.icons.clock;" vertex="1" parent="1">
          <mxGeometry x="365" y="385" width="30" height="30" as="geometry" />
        </mxCell>
        <mxCell id="UT1i1PPxYZeE8euDBB32-48" value="" style="endArrow=classic;html=1;rounded=0;exitX=0.5;exitY=1;exitDx=0;exitDy=0;entryX=0.5;entryY=0;entryDx=0;entryDy=0;entryPerimeter=0;" edge="1" parent="1" source="UT1i1PPxYZeE8euDBB32-14" target="UT1i1PPxYZeE8euDBB32-44">
          <mxGeometry width="50" height="50" relative="1" as="geometry">
            <mxPoint x="500" y="380" as="sourcePoint" />
            <mxPoint x="550" y="330" as="targetPoint" />
          </mxGeometry>
        </mxCell>
        <mxCell id="UT1i1PPxYZeE8euDBB32-50" value="" style="endArrow=classic;html=1;rounded=0;exitX=0.5;exitY=0;exitDx=0;exitDy=0;entryX=0.5;entryY=0;entryDx=0;entryDy=0;edgeStyle=elbowEdgeStyle;elbow=vertical;" edge="1" parent="1" source="UT1i1PPxYZeE8euDBB32-16" target="UT1i1PPxYZeE8euDBB32-14">
          <mxGeometry relative="1" as="geometry">
            <mxPoint x="110" y="300" as="sourcePoint" />
            <mxPoint x="380" y="300" as="targetPoint" />
            <Array as="points">
              <mxPoint x="250" y="280" />
            </Array>
          </mxGeometry>
        </mxCell>
        <mxCell id="UT1i1PPxYZeE8euDBB32-51" value="后台管理系统拒绝退租" style="edgeLabel;resizable=0;html=1;align=center;verticalAlign=middle;" connectable="0" vertex="1" parent="UT1i1PPxYZeE8euDBB32-50">
          <mxGeometry relative="1" as="geometry" />
        </mxCell>
      </root>
    </mxGraphModel>
  </diagram>
</mxfile>
